<?xml version="1.0" encoding="utf-8"?>
<!-- Generator: Adobe Illustrator 27.3.1, SVG Export Plug-In . SVG Version: 6.00 Build 0)  -->
<svg version="1.1" id="Слой_1" xmlns="http://www.w3.org/2000/svg" xmlns:xlink="http://www.w3.org/1999/xlink" x="0px" y="0px"
	 viewBox="0 0 1200 845.5" style="enable-background:new 0 0 1200 845.5;" xml:space="preserve">
<style type="text/css">
	.st0{fill:#FF0000;}
	.st1{fill:#FFFFFF;}
</style>
<path class="st0" d="M1174.9,132c-13.8-52-54.5-92.9-106.1-106.8C975.3,0,600,0,600,0S224.7,0,131.2,25.2
	C79.5,39.1,38.9,80.1,25.1,132C0,226.2,0,422.7,0,422.7s0,196.5,25.1,290.7c13.8,52,54.5,92.9,106.1,106.8
	c93.6,25.2,468.8,25.2,468.8,25.2s375.3,0,468.8-25.2c51.6-13.9,92.3-54.8,106.1-106.8c25.1-94.2,25.1-290.7,25.1-290.7
	S1200,226.2,1174.9,132"/>
<path class="st1" d="M477.3,601.2l313.6-178.4L477.3,244.3V601.2z"/>
</svg>
