<?xml version="1.0" encoding="utf-8"?>
<!-- Generator: Adobe Illustrator 27.3.1, SVG Export Plug-In . SVG Version: 6.00 Build 0)  -->
<svg version="1.1" id="Слой_1" xmlns="http://www.w3.org/2000/svg" xmlns:xlink="http://www.w3.org/1999/xlink" x="0px" y="0px"
	 viewBox="0 0 2000 2000" style="enable-background:new 0 0 2000 2000;" xml:space="preserve">
<style type="text/css">
	.st0{fill:#F91515;}
</style>
<path class="st0" d="M1420.4,506c25.8-27.7,63.8-41.6,114.1-41.6c24.5,0,48.4,3.6,71.6,10.6c23.2,7.1,43.8,17.7,61.9,31.9
	l65.8-181.9c-25.8-19.3-57.7-33.5-95.8-42.6c-38.1-9-78.4-13.5-120.9-13.5c-118.7,0-209.9,32.6-273.8,97.7
	c-63.8,65.1-95.8,151.9-95.8,260.2v65.8H977.4C927,679.8,873.2,673.4,816,673.4c-105.8,0-199.9,22.6-282.5,67.7
	C451,786.2,385.8,848.5,338.1,927.8c-47.7,79.3-71.6,170.6-71.6,273.8c0,101.9,23.8,192.8,71.6,272.8
	c47.7,80,112.9,142.9,195.4,188.6c82.5,45.8,176.7,68.7,282.5,68.7c107,0,202.2-22.9,285.4-68.7c16.1-8.8,31.5-18.3,46.2-28.5v83.6
	h241.8v-832h276.7V692.7h-284.4v-61.9C1381.7,575.4,1394.6,533.8,1420.4,506z M1084,1373.8c-26.5,49-62.9,86.4-109.3,112.2
	c-46.4,25.8-99.3,38.7-158.7,38.7c-58,0-110-12.9-155.8-38.7c-45.8-25.8-82.2-63.2-109.3-112.2c-27.1-49-40.6-106.4-40.6-172.2
	c0-67.1,13.5-124.8,40.6-173.2C578,980,614.5,943,660.3,917.2c45.8-25.8,98.3-38.7,157.7-38.7c58,0,110.3,12.9,156.7,38.7
	c46.4,25.8,82.9,62.9,109.3,111.2c26.4,48.4,39.7,106.1,39.7,173.2C1123.7,1267.3,1110.4,1324.8,1084,1373.8z"/>
</svg>
