<?xml version="1.0" encoding="utf-8"?>
<!-- Generator: Adobe Illustrator 27.3.1, SVG Export Plug-In . SVG Version: 6.00 Build 0)  -->
<svg version="1.1" id="Capa_1" xmlns="http://www.w3.org/2000/svg" xmlns:xlink="http://www.w3.org/1999/xlink" x="0px" y="0px"
	 viewBox="0 0 792 792" style="enable-background:new 0 0 792 792;" xml:space="preserve">
<style type="text/css">
	.st0{fill:#FFFFFF;}
</style>
<circle class="st0" cx="396" cy="396" r="208"/>
<rect x="369" class="st0" width="54" height="107"/>
<rect x="26.5" y="342.5" transform="matrix(6.123234e-17 -1 1 6.123234e-17 -342.5 449.5)" class="st0" width="54" height="107"/>
<rect x="711.5" y="342.5" transform="matrix(6.123234e-17 -1 1 6.123234e-17 342.5 1134.5)" class="st0" width="54" height="107"/>
<rect x="369" y="685" transform="matrix(-1 -1.224647e-16 1.224647e-16 -1 792 1477)" class="st0" width="54" height="107"/>
<rect x="126.8" y="100.8" transform="matrix(0.7071 -0.7071 0.7071 0.7071 -64.0662 153.9624)" class="st0" width="54" height="107"/>
<rect x="126.8" y="585.2" transform="matrix(-0.7071 -0.7071 0.7071 -0.7071 -189.0376 1199.0662)" class="st0" width="54" height="107"/>
<rect x="611.2" y="100.8" transform="matrix(-0.7071 -0.7071 0.7071 -0.7071 980.3305 714.6981)" class="st0" width="54" height="107"/>
<rect x="611.2" y="585.2" transform="matrix(-0.7071 0.7071 -0.7071 -0.7071 1541.0662 639.0376)" class="st0" width="54" height="107"/>
</svg>
